<svg width="69" height="69" viewBox="0 0 69 69" fill="none" xmlns="http://www.w3.org/2000/svg">
<path d="M34.5 8.62499C42.4206 8.62499 50.1831 9.29199 57.7386 10.5742C59.271 10.833 60.375 12.1727 60.375 13.7252V16.7267C60.375 17.5762 60.2077 18.4174 59.8826 19.2022C59.5575 19.9871 59.0811 20.7002 58.4804 21.3009L42.8634 36.9179C42.2627 37.5186 41.7862 38.2317 41.4611 39.0165C41.1361 39.8013 40.9687 40.6425 40.9688 41.492V49.9071C40.969 51.1088 40.6345 52.2867 40.0028 53.309C39.3711 54.3312 38.4671 55.1572 37.3922 55.6945L28.0312 60.375V41.492C28.0313 40.6425 27.8639 39.8013 27.5389 39.0165C27.2138 38.2317 26.7373 37.5186 26.1366 36.9179L10.5196 21.3009C9.91895 20.7002 9.44247 19.9871 9.11739 19.2022C8.79231 18.4174 8.62499 17.5762 8.625 16.7267V13.7252C8.625 12.1727 9.729 10.833 11.2614 10.5742C18.9393 9.27432 26.7129 8.62228 34.5 8.62499Z" stroke="black" stroke-width="1.5" stroke-linecap="round" stroke-linejoin="round"/>
</svg>
