<svg width="78" height="76" viewBox="0 0 78 76" fill="none" xmlns="http://www.w3.org/2000/svg">
<path d="M26.8125 21.375H65.8125M26.8125 38H65.8125M26.8125 54.625H65.8125M12.1875 21.375H12.2102V21.4003H12.1875V21.375ZM13.4062 21.375C13.4062 21.6899 13.2778 21.992 13.0493 22.2147C12.8207 22.4374 12.5107 22.5625 12.1875 22.5625C11.8643 22.5625 11.5543 22.4374 11.3257 22.2147C11.0972 21.992 10.9688 21.6899 10.9688 21.375C10.9688 21.0601 11.0972 20.758 11.3257 20.5353C11.5543 20.3126 11.8643 20.1875 12.1875 20.1875C12.5107 20.1875 12.8207 20.3126 13.0493 20.5353C13.2778 20.758 13.4062 21.0601 13.4062 21.375ZM12.1875 38H12.2102V38.0253H12.1875V38ZM13.4062 38C13.4062 38.3149 13.2778 38.617 13.0493 38.8397C12.8207 39.0624 12.5107 39.1875 12.1875 39.1875C11.8643 39.1875 11.5543 39.0624 11.3257 38.8397C11.0972 38.617 10.9688 38.3149 10.9688 38C10.9688 37.6851 11.0972 37.383 11.3257 37.1603C11.5543 36.9376 11.8643 36.8125 12.1875 36.8125C12.5107 36.8125 12.8207 36.9376 13.0493 37.1603C13.2778 37.383 13.4062 37.6851 13.4062 38ZM12.1875 54.625H12.2102V54.6503H12.1875V54.625ZM13.4062 54.625C13.4062 54.9399 13.2778 55.242 13.0493 55.4647C12.8207 55.6874 12.5107 55.8125 12.1875 55.8125C11.8643 55.8125 11.5543 55.6874 11.3257 55.4647C11.0972 55.242 10.9688 54.9399 10.9688 54.625C10.9688 54.3101 11.0972 54.008 11.3257 53.7853C11.5543 53.5626 11.8643 53.4375 12.1875 53.4375C12.5107 53.4375 12.8207 53.5626 13.0493 53.7853C13.2778 54.008 13.4062 54.3101 13.4062 54.625Z" stroke="black" stroke-width="1.5" stroke-linecap="round" stroke-linejoin="round"/>
</svg>
