<svg width="43" height="38" viewBox="0 0 43 38" fill="none" xmlns="http://www.w3.org/2000/svg">
<path d="M28.2188 16.625V9.5C28.2188 7.92528 27.5109 6.41505 26.2509 5.30155C24.9909 4.18806 23.2819 3.5625 21.5 3.5625C19.7181 3.5625 18.0091 4.18806 16.7491 5.30155C15.4891 6.41505 14.7813 7.92528 14.7813 9.5V16.625M35.1274 13.4694L37.3903 32.4694C37.5157 33.5223 36.584 34.4375 35.3854 34.4375H7.61459C7.33188 34.4378 7.05226 34.3855 6.79391 34.284C6.53556 34.1826 6.30425 34.0342 6.115 33.8486C5.92576 33.663 5.78281 33.4443 5.69545 33.2067C5.60809 32.9691 5.57827 32.7179 5.60792 32.4694L7.87259 13.4694C7.92483 13.0317 8.15858 12.6266 8.52879 12.3322C8.89899 12.0378 9.37943 11.8749 9.87746 11.875H33.1225C34.1545 11.875 35.0199 12.5638 35.1274 13.4694ZM15.4531 16.625C15.4531 16.7825 15.3823 16.9335 15.2563 17.0448C15.1303 17.1562 14.9594 17.2188 14.7813 17.2188C14.6031 17.2188 14.4322 17.1562 14.3062 17.0448C14.1802 16.9335 14.1094 16.7825 14.1094 16.625C14.1094 16.4675 14.1802 16.3165 14.3062 16.2052C14.4322 16.0938 14.6031 16.0313 14.7813 16.0313C14.9594 16.0313 15.1303 16.0938 15.2563 16.2052C15.3823 16.3165 15.4531 16.4675 15.4531 16.625ZM28.8906 16.625C28.8906 16.7825 28.8198 16.9335 28.6938 17.0448C28.5678 17.1562 28.3969 17.2188 28.2188 17.2188C28.0406 17.2188 27.8697 17.1562 27.7437 17.0448C27.6177 16.9335 27.5469 16.7825 27.5469 16.625C27.5469 16.4675 27.6177 16.3165 27.7437 16.2052C27.8697 16.0938 28.0406 16.0313 28.2188 16.0313C28.3969 16.0313 28.5678 16.0938 28.6938 16.2052C28.8198 16.3165 28.8906 16.4675 28.8906 16.625Z" stroke="white" stroke-width="1.5" stroke-linecap="round" stroke-linejoin="round"/>
</svg>
